<svg width="1600" height="740" viewBox="0 0 1600 740" fill="none" xmlns="http://www.w3.org/2000/svg">
  <defs>
    <linearGradient id="bg" x1="0" y1="0" x2="0" y2="740" gradientUnits="userSpaceOnUse">
      <stop stop-color="#F8FAFF"/>
      <stop offset="1" stop-color="#EEF3FB"/>
    </linearGradient>
    <linearGradient id="card" x1="0" y1="0" x2="0" y2="520" gradientUnits="userSpaceOnUse">
      <stop stop-color="#FFFFFF" stop-opacity="0.95"/>
      <stop offset="1" stop-color="#F8FBFF" stop-opacity="0.92"/>
    </linearGradient>
    <filter id="shadow" x="48" y="40" width="1504" height="620" filterUnits="userSpaceOnUse" color-interpolation-filters="sRGB">
      <feDropShadow dx="0" dy="14" stdDeviation="18" flood-color="#0F274A" flood-opacity="0.12"/>
    </filter>
    <linearGradient id="line" x1="250" y1="0" x2="1350" y2="0" gradientUnits="userSpaceOnUse">
      <stop stop-color="#C9D6EA"/>
      <stop offset="1" stop-color="#D5DFEF"/>
    </linearGradient>
    <linearGradient id="inFlow" x1="0" y1="0" x2="0" y2="120" gradientUnits="userSpaceOnUse">
      <stop stop-color="#EAF9F3"/>
      <stop offset="1" stop-color="#DFF4EC"/>
    </linearGradient>
    <linearGradient id="risk" x1="0" y1="0" x2="0" y2="120" gradientUnits="userSpaceOnUse">
      <stop stop-color="#FFF9EC"/>
      <stop offset="1" stop-color="#FFF3DA"/>
    </linearGradient>
    <linearGradient id="neutral" x1="0" y1="0" x2="0" y2="120" gradientUnits="userSpaceOnUse">
      <stop stop-color="#F8FAFD"/>
      <stop offset="1" stop-color="#F2F6FC"/>
    </linearGradient>
  </defs>

  <rect width="1600" height="740" fill="url(#bg)"/>

  <g filter="url(#shadow)">
    <rect x="72" y="62" width="1456" height="548" rx="28" fill="url(#card)" stroke="#D5E0F0"/>
  </g>

  <text x="120" y="128" fill="#0F1D3A" font-family="Inter, Segoe UI, Arial" font-size="56" font-weight="700">MatterFlow Timeline</text>
  <text x="120" y="168" fill="#5A6F90" font-family="Inter, Segoe UI, Arial" font-size="26" font-weight="500">Full PPM Services · Joe Goodman – Umbrella Filing Only</text>

  <rect x="120" y="198" width="408" height="58" rx="14" fill="#ECF3FF" stroke="#D6E4FA"/>
  <text x="144" y="235" fill="#2B4E80" font-family="Inter, Segoe UI, Arial" font-size="24" font-weight="600">Projected Completion: Apr 18, 2026</text>

  <rect x="546" y="198" width="252" height="58" rx="14" fill="#FFF4E3" stroke="#F2D7A8"/>
  <text x="570" y="235" fill="#9C6408" font-family="Inter, Segoe UI, Arial" font-size="24" font-weight="700">1 Active Risk</text>

  <line x1="250" y1="386" x2="1350" y2="386" stroke="url(#line)" stroke-width="8" stroke-linecap="round"/>

  <!-- Stage cards -->
  <rect x="120" y="316" width="300" height="136" rx="22" fill="url(#inFlow)" stroke="#9DDFC0" stroke-width="2"/>
  <circle cx="156" cy="356" r="18" fill="#1FA56A"/>
  <path d="M147 356L154 363L167 349" stroke="white" stroke-width="4" stroke-linecap="round" stroke-linejoin="round"/>
  <text x="188" y="364" fill="#0D4A32" font-family="Inter, Segoe UI, Arial" font-size="38" font-weight="700">Intake</text>
  <text x="188" y="408" fill="#1E6A48" font-family="Inter, Segoe UI, Arial" font-size="36" font-weight="700">10/12d</text>

  <rect x="452" y="316" width="300" height="136" rx="22" fill="url(#risk)" stroke="#F1C66D" stroke-width="2.2"/>
  <circle cx="488" cy="356" r="18" fill="#E6A317"/>
  <path d="M488 346V359" stroke="white" stroke-width="4" stroke-linecap="round"/>
  <circle cx="488" cy="365" r="2.8" fill="white"/>
  <text x="520" y="364" fill="#7A4B00" font-family="Inter, Segoe UI, Arial" font-size="38" font-weight="700">Drafting</text>
  <text x="520" y="408" fill="#9A6104" font-family="Inter, Segoe UI, Arial" font-size="36" font-weight="700">29/30d</text>

  <rect x="784" y="316" width="300" height="136" rx="22" fill="url(#neutral)" stroke="#C8D6EA" stroke-width="2"/>
  <circle cx="820" cy="356" r="18" fill="#C7D3E5"/>
  <circle cx="820" cy="356" r="6" fill="white"/>
  <text x="852" y="364" fill="#2E476C" font-family="Inter, Segoe UI, Arial" font-size="38" font-weight="700">SEC/Blue Sky</text>
  <text x="852" y="408" fill="#506A8D" font-family="Inter, Segoe UI, Arial" font-size="36" font-weight="700">0/5d</text>

  <rect x="1116" y="316" width="300" height="136" rx="22" fill="url(#neutral)" stroke="#C8D6EA" stroke-width="2"/>
  <circle cx="1152" cy="356" r="18" fill="#C7D3E5"/>
  <circle cx="1152" cy="356" r="6" fill="white"/>
  <text x="1184" y="364" fill="#2E476C" font-family="Inter, Segoe UI, Arial" font-size="38" font-weight="700">Closing</text>
  <text x="1184" y="408" fill="#506A8D" font-family="Inter, Segoe UI, Arial" font-size="36" font-weight="700">0/7d</text>

  <!-- Connector nodes -->
  <circle cx="436" cy="386" r="9" fill="#BCD0EA"/>
  <circle cx="768" cy="386" r="9" fill="#BCD0EA"/>
  <circle cx="1100" cy="386" r="9" fill="#BCD0EA"/>

  <!-- Legend -->
  <rect x="120" y="500" width="1296" height="88" rx="18" fill="#F4F8FF" stroke="#D5E0F0"/>
  <circle cx="164" cy="544" r="10" fill="#1FA56A"/>
  <text x="186" y="551" fill="#2B4E80" font-family="Inter, Segoe UI, Arial" font-size="28" font-weight="600">Completed / In Flow</text>

  <circle cx="546" cy="544" r="10" fill="#E6A317"/>
  <text x="568" y="551" fill="#2B4E80" font-family="Inter, Segoe UI, Arial" font-size="28" font-weight="600">Approaching stage limit</text>

  <circle cx="946" cy="544" r="10" fill="#C7D3E5"/>
  <text x="968" y="551" fill="#2B4E80" font-family="Inter, Segoe UI, Arial" font-size="28" font-weight="600">Not started</text>
</svg>
