<svg viewBox="135 247 482 203" fill="none" xmlns="http://www.w3.org/2000/svg">
<path d="M370.605 247C343.705 266.928 326.266 298.902 326.266 334.951V450H237.396C181.34 450 135.896 404.557 135.896 348.5C135.896 292.443 181.34 247 237.396 247H370.605Z" fill="url(#paint0_linear_2091_408)"/>
<path d="M515.492 247.048C571.496 247.048 616.896 292.448 616.896 348.452C616.896 404.456 571.496 449.856 515.492 449.856H391.194L347.749 449.452V334.951C347.749 286.404 387.105 247.048 435.652 247.048H515.492Z" fill="url(#paint1_linear_2091_408)"/>
<path d="M466.651 348.955C466.023 342.75 460.484 338.23 454.279 338.859C448.075 339.487 443.554 345.026 444.182 351.23C444.811 357.435 450.35 361.955 456.555 361.327C462.759 360.698 467.28 355.159 466.651 348.955ZM501.743 319.593C500.913 311.4 493.599 305.43 485.406 306.26C477.213 307.089 471.243 314.404 472.073 322.597C472.903 330.79 480.218 336.759 488.411 335.929C496.603 335.099 502.572 327.785 501.743 319.593ZM524.092 368.237C523.095 358.4 514.314 351.233 504.477 352.229C494.64 353.225 487.473 362.007 488.469 371.844C489.465 381.681 498.247 388.848 508.084 387.852C517.921 386.855 525.088 378.074 524.092 368.237Z" fill="white"/>
<defs>
<linearGradient id="paint0_linear_2091_408" x1="204.896" y1="267.199" x2="321.264" y2="473.765" gradientUnits="userSpaceOnUse">
<stop stop-color="#1EC9B9"/>
<stop offset="1" stop-color="#0AA6B5"/>
</linearGradient>
<linearGradient id="paint1_linear_2091_408" x1="554.786" y1="273.829" x2="377.486" y2="487.506" gradientUnits="userSpaceOnUse">
<stop stop-color="#B279FB"/>
<stop offset="1" stop-color="#6E51FA"/>
</linearGradient>
</defs>
</svg>
