<svg width="1490" height="247" viewBox="0 0 1490 247" fill="none" xmlns="http://www.w3.org/2000/svg">
<path d="M533.321 78.8188L522 49.7954H581.282C593.632 49.7954 603.856 51.5108 611.952 54.9414C620.048 58.2349 626.086 63.8612 630.066 71.8203C634.045 79.7794 636.035 90.6203 636.035 104.343C636.035 122.869 631.713 136.385 623.067 144.893C614.422 153.264 601.248 157.587 583.546 157.861V126.574C586.702 125.064 589.035 122.525 590.545 118.958C592.191 115.252 593.015 110.244 593.015 103.931C593.015 96.9327 592.397 91.6495 591.162 88.0816C590.064 84.5137 588.075 82.1123 585.193 80.8772C582.448 79.505 578.537 78.8188 573.46 78.8188H533.321ZM533.321 89.1108H573.46V198H533.321V89.1108ZM647.426 79.6422H684.477V198H647.426V79.6422ZM646.396 42.591H685.506V70.5852H646.396V42.591ZM737.947 198H700.896V47.5312L737.947 42.591V198ZM791.417 198H754.366V47.5312L791.417 42.591V198ZM849.621 120.604L830.89 150.245L823.068 145.099C816.618 140.845 811.952 136.248 809.071 131.308C806.189 126.368 804.748 119.918 804.748 111.959C804.748 100.569 808.11 92.1298 814.834 86.6407C821.558 81.0145 832.605 78.1327 847.974 77.9955C853.738 77.9955 859.021 78.2699 863.824 78.8188C868.764 79.2305 872.675 79.7108 875.557 80.2597C878.576 80.8086 880.085 81.0831 880.085 81.0831L876.998 108.46C876.998 108.46 875.969 108.323 873.91 108.048C871.852 107.774 869.176 107.499 865.882 107.225C862.726 106.813 859.433 106.607 856.002 106.607C851.062 106.607 847.494 107.019 845.299 107.842C843.103 108.666 842.005 110.244 842.005 112.577C842.005 113.949 842.417 115.115 843.24 116.076C844.063 116.899 845.367 117.86 847.151 118.958L849.621 120.604ZM839.535 155.803L858.472 126.368L865.265 130.69C871.852 134.944 876.586 139.542 879.468 144.482C882.35 149.285 883.791 155.528 883.791 163.213C883.791 175.426 880.291 184.62 873.293 190.796C866.294 196.834 854.836 199.921 838.917 200.058C831.919 200.058 825.469 199.647 819.569 198.823C813.805 198.137 808.522 197.177 803.719 195.942L806.806 167.947C806.806 167.947 809.345 168.359 814.423 169.182C819.5 169.869 826.224 170.212 834.595 170.212C842.142 170.212 845.916 167.947 845.916 163.419C845.916 161.086 844.201 158.822 840.77 156.626L839.535 155.803ZM999.413 199.853V169.594C1004.35 166.301 1006.82 156.146 1006.82 139.13C1006.82 121.702 1004.35 111.479 999.413 108.46V78.2013C1015.88 78.8874 1027.61 84.0334 1034.61 93.6393C1041.61 103.108 1045.11 118.203 1045.11 138.924C1045.11 159.645 1041.61 174.809 1034.61 184.415C1027.61 193.883 1015.88 199.029 999.413 199.853ZM989.121 169.8V199.853C972.654 199.029 960.921 193.883 953.922 184.415C946.924 174.809 943.425 159.645 943.425 138.924C943.425 118.203 946.924 103.108 953.922 93.6393C960.921 84.1707 972.654 79.0247 989.121 78.2013V108.254C986.514 109.901 984.592 113.194 983.357 118.134C982.26 123.074 981.711 130.073 981.711 139.13C981.711 156.558 984.181 166.781 989.121 169.8ZM1053.38 107.431V79.6422H1065.73V74.2904C1065.73 65.7823 1067.38 59.1268 1070.67 54.3239C1073.96 49.521 1079.18 46.0903 1086.31 44.0319C1093.45 41.9735 1102.85 40.9443 1114.51 40.9443C1117.12 40.9443 1120 41.1502 1123.16 41.5618V68.1152C1120.28 67.7035 1117.6 67.4977 1115.13 67.4977C1111.15 67.4977 1108.06 68.2524 1105.87 69.7619C1103.81 71.1341 1102.78 73.5356 1102.78 76.9663V79.6422H1123.16V107.431H1053.38ZM1065.73 116.693H1102.78V198H1065.73V116.693ZM1235.12 49.7954L1217.62 82.7298H1183.86V49.7954H1235.12ZM1213.92 198H1181.8V173.093L1246.44 49.7954H1278.76V74.702L1213.92 198ZM1225.44 198L1242.94 165.066H1279.78V198H1225.44ZM1341.3 200.058C1333.21 200.058 1325.79 199.166 1319.07 197.382C1312.48 195.599 1306.79 192.442 1301.99 187.914C1297.18 183.385 1293.48 177.142 1290.87 169.182C1288.26 161.223 1286.96 151.069 1286.96 138.718C1286.96 119.506 1290.39 104.823 1297.25 94.6685C1304.11 84.3765 1315.16 78.8188 1330.39 77.9955V108.254C1327.37 112.92 1325.86 122.869 1325.86 138.101C1325.86 147.02 1326.55 153.882 1327.92 158.685C1329.29 163.488 1331.9 166.781 1335.74 168.565C1339.72 170.349 1345.35 171.241 1352.62 171.241C1355.78 171.241 1359 170.966 1362.3 170.417C1365.73 169.869 1369.02 169.251 1372.18 168.565V196.559C1367.37 197.52 1362.3 198.343 1356.95 199.029C1351.73 199.715 1346.52 200.058 1341.3 200.058ZM1336.16 150.245V127.397H1342.95C1342.95 124.241 1342.81 120.879 1342.54 117.311C1342.4 113.743 1341.71 110.793 1340.48 108.46V78.2013C1353.51 79.2991 1362.91 84.0334 1368.68 92.4043C1374.44 100.638 1377.32 112.302 1377.32 127.397C1377.32 131.239 1377.19 135.219 1376.91 139.336C1376.64 143.315 1376.16 146.952 1375.47 150.245H1336.16ZM1435.91 107.019V80.2597C1440.44 78.7502 1444.83 77.9955 1449.09 77.9955C1458.55 77.9955 1466.38 80.9458 1472.55 86.8466C1478.86 92.7473 1482.02 101.598 1482.02 113.4V198H1444.97V119.369C1444.97 111.959 1441.95 107.842 1435.91 107.019ZM1425.62 95.4918V198H1388.57V79.6422H1420.06L1425.62 95.4918Z" fill="white"/>
<path d="M318.486 124.86C317.823 118.314 311.978 113.544 305.431 114.207C298.884 114.87 294.114 120.715 294.777 127.262C295.441 133.808 301.286 138.577 307.832 137.914C314.379 137.251 319.149 131.407 318.486 124.86ZM355.515 93.8771C354.639 85.2319 346.92 78.9336 338.275 79.8091C329.63 80.6849 323.331 88.4028 324.207 97.0478C325.083 105.693 332.801 111.991 341.446 111.116C350.091 110.24 356.39 102.522 355.515 93.8771ZM379.097 145.206C378.045 134.826 368.778 127.263 358.399 128.314C348.019 129.366 340.457 138.633 341.508 149.012C342.559 159.392 351.826 166.955 362.206 165.903C372.585 164.852 380.148 155.585 379.097 145.206Z" fill="white"/>
<path d="M234.709 22C207.808 41.9281 190.369 73.9024 190.369 109.951V225H101.5C45.4431 225 0 179.557 0 123.5C0 67.4431 45.4431 22 101.5 22H234.709Z" fill="url(#paint0_linear_2091_431)"/>
<path d="M379.596 22.0479C435.6 22.0479 481 67.4482 481 123.452C481 179.456 435.6 224.856 379.596 224.856H255.298L211.853 224.452V109.951C211.853 61.4035 251.208 22.0479 299.756 22.0479H379.596Z" fill="url(#paint1_linear_2091_431)"/>
<path d="M330.755 123.955C330.126 117.75 324.587 113.23 318.383 113.859C312.178 114.487 307.658 120.026 308.286 126.23C308.914 132.435 314.454 136.955 320.658 136.327C326.863 135.698 331.383 130.159 330.755 123.955ZM365.846 94.5925C365.016 86.3996 357.702 80.4301 349.509 81.2596C341.316 82.0894 335.347 89.4043 336.177 97.5973C337.006 105.79 344.321 111.759 352.514 110.929C360.707 110.099 366.676 102.785 365.846 94.5925ZM388.195 143.237C387.199 133.4 378.417 126.233 368.58 127.229C358.743 128.225 351.576 137.007 352.573 146.844C353.569 156.681 362.351 163.848 372.188 162.852C382.025 161.855 389.191 153.074 388.195 143.237Z" fill="white"/>
<defs>
<linearGradient id="paint0_linear_2091_431" x1="69" y1="42.199" x2="185.368" y2="248.765" gradientUnits="userSpaceOnUse">
<stop stop-color="#1EC9B9"/>
<stop offset="1" stop-color="#0AA6B5"/>
</linearGradient>
<linearGradient id="paint1_linear_2091_431" x1="418.889" y1="48.8287" x2="241.59" y2="262.506" gradientUnits="userSpaceOnUse">
<stop stop-color="#B279FB"/>
<stop offset="1" stop-color="#6E51FA"/>
</linearGradient>
</defs>
</svg>
